<?xml version="1.0" standalone="no"?>
<!DOCTYPE svg PUBLIC "-//W3C//DTD SVG 20010904//EN"
 "http://www.w3.org/TR/2001/REC-SVG-20010904/DTD/svg10.dtd">
<svg version="1.0" xmlns="http://www.w3.org/2000/svg"
 width="2048.000000pt" height="1654.000000pt" viewBox="0 0 2048.000000 1654.000000"
 preserveAspectRatio="xMidYMid meet">

<g transform="translate(0.000000,1654.000000) scale(0.100000,-0.100000)"
fill="#000000" stroke="none">
<path d="M580 13530 l0 -2140 378 -2 377 -3 0 -223 0 -222 1997 0 1998 0 2
223 3 222 125 2 c69 1 198 2 288 2 l162 1 0 210 0 210 230 0 230 0 0 1930 0
1930 -1185 0 -1185 0 0 -210 0 -210 -666 2 -665 3 -2 205 -2 205 -1042 3
-1043 2 0 -2140z"/>
<path d="M7348 14536 c-17 -12 -18 -44 -18 -407 0 -383 1 -395 20 -412 19 -16
229 -17 3698 -15 l3677 3 3 423 2 422 -3682 0 c-3047 -1 -3686 -3 -3700 -14z"/>
<path d="M7420 13225 c0 -17 -5 -25 -18 -25 -41 0 -42 -9 -42 -400 0 -279 3
-379 12 -388 9 -9 1144 -12 5045 -12 l5033 0 0 425 0 425 -5015 0 -5015 0 0
-25z"/>
<path d="M580 8400 l0 -2170 378 -2 377 -3 2 -195 2 -195 1995 -1 1996 -2 0
199 0 199 290 0 290 0 0 235 0 235 230 0 230 0 0 1935 0 1935 -1185 0 -1185 0
0 -240 0 -240 -666 2 -665 3 -2 235 -2 235 -1042 3 -1043 2 0 -2170z"/>
<path d="M7300 9270 c0 -5 -11 -10 -25 -10 l-25 0 2 -402 3 -403 23 -3 c12 -2
22 -8 22 -13 0 -5 1405 -9 3650 -9 3439 0 3651 1 3670 17 19 17 20 29 20 307
0 260 -2 291 -17 309 -17 18 -17 19 0 28 14 8 17 25 17 89 0 68 -3 81 -19 90
-27 14 -7321 14 -7321 0z"/>
<path d="M7307 7973 c-4 -3 -7 -17 -7 -30 0 -12 -4 -23 -10 -23 -6 0 -10 -137
-10 -390 0 -375 1 -390 19 -400 14 -7 1594 -10 5025 -10 l5006 0 0 33 c0 18 9
50 20 72 26 51 26 120 0 163 -16 27 -20 50 -20 133 0 68 5 109 15 128 13 26
13 30 0 41 -12 10 -15 41 -15 151 l0 139 -5008 0 c-2755 0 -5012 -3 -5015 -7z"/>
<path d="M580 3270 l0 -2200 380 0 381 0 -2 -167 -1 -168 1996 -3 1996 -2 0
170 0 170 290 0 290 0 0 265 0 265 230 0 230 0 0 1935 0 1935 -1185 0 -1185 0
0 -265 0 -265 -665 2 -666 3 -2 260 -2 260 -1042 3 -1043 2 0 -2200z"/>
<path d="M7300 4000 c0 -5 30 -10 68 -12 l67 -3 0 -400 0 -400 -67 -3 c-38 -2
-68 -7 -68 -12 0 -6 409 -10 1103 -9 989 0 1096 2 1047 15 -137 37 -230 138
-261 286 -7 29 -9 97 -7 152 4 85 10 112 35 166 61 134 147 198 297 220 28 4
-459 8 -1081 9 -714 1 -1133 -3 -1133 -9z m535 -415 l0 -400 -92 -3 -93 -3 0
399 c0 219 3 402 7 406 4 4 46 5 93 4 l85 -3 0 -400z m810 320 l0 -80 -117 -3
-118 -3 0 -319 0 -320 -90 0 -90 0 0 320 0 319 -117 3 -118 3 -3 69 c-2 38 -1
75 2 83 5 11 63 13 328 11 l323 -3 0 -80z"/>
<path d="M9638 3999 c149 -19 275 -126 284 -241 l3 -33 -91 -3 -91 -3 -13 31
c-45 108 -226 119 -303 19 -39 -52 -61 -140 -54 -222 8 -89 38 -150 90 -185
35 -23 51 -27 113 -27 81 0 111 15 152 75 36 54 32 59 -60 62 l-83 3 0 75 0
75 170 0 170 0 0 -220 0 -220 -65 0 -65 0 -3 33 c-2 17 -5 32 -7 32 -3 0 -24
-14 -49 -31 -24 -18 -66 -38 -93 -45 -40 -10 384 -13 2460 -13 1665 -1 2507 2
2507 9 0 6 -32 10 -75 10 l-75 0 2 303 3 302 73 3 c63 2 73 5 70 20 -3 14 -17
18 -76 20 l-72 3 0 79 0 80 69 0 c39 0 73 5 76 10 4 7 -835 10 -2512 9 -1385
-1 -2490 -5 -2455 -10z m3080 -131 l3 -117 41 21 c88 46 206 32 269 -31 54
-54 60 -88 57 -338 l-3 -218 -85 0 -85 0 -6 215 c-3 118 -6 216 -7 217 -1 1
-14 9 -29 16 -49 24 -111 7 -135 -36 -9 -15 -15 -86 -18 -217 l-5 -195 -85 0
-85 0 -3 390 c-1 214 0 396 3 403 3 9 27 12 87 10 l83 -3 3 -117z m1482 -9 l0
-68 43 -3 42 -3 0 -65 0 -65 -42 -3 -43 -3 0 -165 c0 -163 0 -164 23 -165 66
-3 62 2 65 -78 l3 -73 -93 4 c-104 5 -153 23 -168 64 -6 14 -10 112 -10 219
l0 194 -37 3 -38 3 0 65 0 65 38 3 37 3 0 74 0 74 78 3 c42 2 83 -1 90 -6 7
-5 12 -33 12 -77z m-1994 -74 c61 -18 112 -68 125 -121 4 -22 9 -123 9 -226 0
-156 3 -189 16 -202 8 -9 14 -24 12 -34 -3 -14 -17 -17 -95 -20 -91 -3 -93 -2
-99 22 l-6 25 -41 -27 c-34 -23 -53 -27 -121 -30 -69 -2 -87 1 -121 20 -73 42
-103 140 -71 231 27 75 82 111 198 127 146 21 172 37 131 82 -11 12 -30 18
-63 18 -50 0 -72 -15 -84 -57 -7 -21 -13 -23 -87 -23 -95 0 -100 6 -75 86 19
59 67 108 127 130 48 17 186 17 245 -1z m1493 -15 c84 -47 85 -52 91 -302 5
-198 7 -221 23 -233 10 -7 17 -22 15 -32 -3 -16 -14 -18 -98 -18 -91 0 -95 1
-98 22 l-3 22 -40 -26 c-32 -21 -55 -27 -118 -31 -92 -5 -137 11 -179 66 -24
31 -27 44 -27 113 0 71 2 80 31 115 42 52 84 71 197 88 98 15 127 26 127 52 0
22 -43 44 -86 44 -34 0 -47 -5 -63 -26 -12 -15 -21 -33 -21 -41 0 -11 -17 -13
-82 -11 -83 3 -83 3 -86 31 -5 38 41 130 76 153 50 33 104 44 202 41 79 -2
102 -7 139 -27z m-3379 -190 c3 -113 9 -213 14 -223 21 -44 93 -48 138 -8 l33
29 5 204 5 203 85 0 85 0 3 -303 2 -303 -82 3 c-78 3 -82 4 -88 28 -4 18 -8
21 -14 11 -27 -44 -179 -67 -249 -37 -49 20 -93 77 -106 136 -12 56 -15 452
-4 464 4 4 43 5 88 4 l80 -3 5 -205z m733 88 c15 -68 32 -147 38 -176 6 -29
13 -51 15 -49 3 2 18 74 35 158 16 85 32 162 35 172 5 14 18 17 92 17 l87 0
34 -167 c19 -93 36 -172 39 -177 5 -9 14 26 67 267 l17 77 83 0 c49 0 87 -4
91 -11 3 -6 -31 -143 -77 -305 l-84 -294 -91 0 -91 0 -32 158 c-41 197 -41
199 -51 181 -4 -8 -22 -87 -41 -176 l-33 -163 -91 0 -90 0 -83 295 c-46 163
-80 300 -77 305 3 6 46 10 94 10 l88 0 26 -122z"/>
<path d="M12110 3438 c-19 -5 -52 -14 -73 -19 -67 -18 -75 -99 -12 -115 32 -8
100 21 121 50 14 21 20 97 7 95 -5 -1 -24 -5 -43 -11z"/>
<path d="M13539 3431 c-37 -9 -74 -22 -83 -30 -25 -21 -20 -68 9 -87 56 -36
155 29 155 102 0 19 -3 33 -7 33 -5 -1 -38 -9 -74 -18z"/>
<path d="M7300 2675 c0 -24 3 -25 58 -25 l57 0 134 -267 133 -268 134 268 135
268 62 -3 62 -3 0 -390 0 -390 -50 0 -50 0 -5 285 -5 285 -125 -248 -125 -248
-35 3 -35 3 -120 242 c-66 133 -123 242 -127 242 -4 1 -9 -126 -10 -281 l-3
-283 -45 -6 c-25 -3 340 -6 810 -7 701 0 846 2 804 12 -102 25 -174 87 -205
175 l-12 34 -25 -49 c-32 -65 -66 -100 -127 -132 -44 -23 -61 -26 -145 -26
-108 1 -147 14 -211 71 -63 57 -82 103 -87 211 -4 88 -3 96 27 157 54 110 140
159 278 158 122 -1 231 -69 269 -169 l17 -44 27 58 c51 107 126 151 253 152
83 0 129 -14 183 -55 l33 -25 3 160 3 160 -967 0 -968 0 0 -25z"/>
<path d="M9335 2283 l0 -418 -50 0 -50 0 -3 38 c-4 42 -11 46 -36 18 -23 -25
-76 -50 -129 -60 -26 -6 82 -9 283 -9 279 0 317 2 270 12 -74 17 -108 36 -157
89 -56 61 -77 127 -71 231 7 125 55 204 155 252 75 37 192 39 266 4 93 -44
147 -138 147 -257 l0 -63 -231 0 -230 0 7 -22 c41 -134 186 -179 315 -99 l52
32 28 -27 c16 -15 29 -33 29 -40 0 -15 -70 -64 -115 -82 -16 -7 -50 -16 -75
-21 -27 -5 556 -9 1430 -9 1181 0 1464 2 1420 12 -109 24 -171 72 -214 165
-30 68 -29 198 2 266 51 111 144 168 273 168 63 1 86 -4 132 -27 60 -29 111
-87 122 -137 4 -16 10 -29 13 -29 4 1 18 24 32 51 45 93 128 139 250 139 80 0
122 -13 172 -51 l37 -29 3 160 3 160 -1650 0 -1650 0 0 -417 0 -418 -50 0 -50
0 0 418 0 417 -340 0 -340 0 0 -417z m2630 377 c57 -63 -23 -153 -93 -104 -27
19 -30 78 -5 106 22 24 75 23 98 -2z m-1385 -280 c5 -246 6 -268 26 -305 12
-22 30 -48 41 -57 73 -66 238 -64 311 5 55 51 57 62 62 352 l5 270 50 0 50 0
3 -259 c2 -213 -1 -270 -13 -314 -29 -97 -80 -153 -175 -193 -23 -9 -71 -14
-140 -14 -88 0 -113 4 -155 23 -65 30 -118 83 -147 146 -22 49 -23 64 -26 319
-2 148 -1 275 2 283 4 11 19 14 53 12 l48 -3 5 -265z m1620 140 l0 -69 88 -3
87 -3 3 -47 3 -48 -90 0 -91 0 0 -162 c0 -172 7 -204 45 -218 12 -5 38 -2 60
6 57 20 60 18 78 -26 15 -39 15 -41 -7 -56 -57 -37 -150 -44 -206 -16 -66 33
-75 63 -78 279 l-4 192 -36 3 c-37 3 -37 3 -37 48 0 45 0 45 38 48 l37 3 0 70
0 69 55 0 55 0 0 -70z m-532 -82 c50 -23 86 -73 102 -138 6 -27 10 -122 8
-240 l-3 -195 -50 0 -50 0 -5 195 c-4 161 -8 201 -23 227 -51 94 -211 87 -275
-10 -26 -39 -27 -46 -32 -226 l-5 -186 -50 0 -50 0 0 295 0 295 53 3 52 3 0
-35 c0 -39 10 -45 31 -20 51 61 202 78 297 32z m303 -272 c0 -159 -4 -293 -9
-298 -5 -5 -29 -8 -53 -6 l-44 3 -3 285 c-1 157 0 291 3 298 3 9 20 12 55 10
l51 -3 0 -289z"/>
<path d="M13515 2283 l0 -418 -50 0 -50 0 -3 37 -3 37 -44 -31 c-25 -18 -70
-37 -102 -44 -48 -10 81 -12 742 -12 656 0 792 2 755 12 -64 18 -85 31 -116
72 -32 42 -44 126 -24 174 17 41 71 87 117 99 21 6 89 11 151 11 127 0 134 4
111 67 -32 83 -133 103 -244 48 -33 -17 -62 -31 -66 -33 -3 -1 -18 15 -32 37
l-27 40 43 25 c74 44 127 59 212 59 91 1 144 -20 188 -73 43 -50 48 -88 45
-315 l-3 -210 -50 0 c-47 0 -50 2 -53 28 l-3 28 -37 -23 c-20 -12 -62 -28 -92
-34 -44 -10 184 -12 1100 -12 1005 0 1147 1 1092 13 -35 8 -85 28 -111 45 -26
16 -50 30 -53 30 -3 0 -3 -11 0 -25 2 -14 -1 -32 -8 -40 -13 -16 -76 -20 -97
-7 -8 5 -13 67 -15 211 l-3 203 -36 32 c-61 57 -152 56 -220 -1 -52 -44 -59
-74 -59 -261 0 -190 -2 -195 -67 -190 l-38 3 -3 298 -2 298 52 -3 c52 -3 53
-4 58 -37 4 -30 7 -32 18 -19 26 33 114 61 187 61 80 0 136 -23 178 -72 42
-51 51 -94 51 -263 1 -153 7 -184 26 -134 14 38 25 38 78 6 104 -65 242 -49
242 27 0 41 -25 60 -127 94 -142 47 -191 100 -180 195 6 60 31 93 93 124 64
32 176 33 247 2 l47 -21 0 140 0 139 -1907 0 -1908 0 0 -417z m2137 380 c45
-41 7 -127 -54 -121 -61 6 -86 79 -42 122 20 21 73 20 96 -1z m-1442 -302
l215 -290 5 287 5 287 53 3 52 3 -2 -393 -3 -393 -51 0 -52 0 -216 289 -216
289 -2 -289 -3 -289 -44 -3 c-24 -2 -48 1 -53 6 -6 6 -12 499 -8 772 0 6 24
10 53 10 l52 0 215 -289z m1128 157 l3 -68 78 0 c89 0 104 -9 99 -62 l-3 -33
-87 -3 -88 -3 0 -172 c0 -193 5 -211 58 -209 17 0 40 5 51 11 34 19 50 12 66
-25 8 -20 15 -40 15 -44 0 -4 -22 -17 -49 -29 -96 -41 -196 -20 -233 50 -16
29 -18 59 -18 226 l0 192 -42 3 c-41 3 -43 5 -46 36 -4 43 12 62 55 62 l34 0
-1 63 c-1 34 -1 66 -1 70 1 4 25 7 54 5 l52 -3 3 -67z m805 -81 c66 -27 133
-104 153 -175 37 -127 -2 -268 -95 -339 -117 -90 -312 -80 -413 20 -104 105
-111 310 -13 425 81 94 239 124 368 69z m-485 -274 l-3 -298 -50 0 -50 0 -3
285 c-1 157 0 290 3 297 3 8 23 13 55 13 l50 0 -2 -297z"/>
<path d="M15918 2340 c-95 -51 -130 -178 -78 -280 36 -70 105 -106 191 -98
101 10 176 105 167 211 -10 115 -73 179 -182 184 -46 3 -70 -2 -98 -17z"/>
<path d="M9634 2360 c-47 -11 -92 -47 -114 -90 -11 -22 -20 -44 -20 -50 0 -6
62 -10 180 -10 117 0 180 4 180 10 0 26 -30 78 -59 103 -49 40 -103 53 -167
37z"/>
<path d="M12587 2356 c-45 -16 -83 -49 -103 -88 -30 -58 -30 -58 161 -58 195
0 191 -2 158 67 -33 70 -137 108 -216 79z"/>
<path d="M17110 2363 c-60 -11 -79 -67 -35 -101 14 -11 58 -30 98 -42 39 -12
91 -33 114 -46 l42 -24 3 100 c2 55 2 100 0 100 -2 0 -10 -6 -18 -14 -12 -13
-20 -12 -57 4 -47 20 -109 30 -147 23z"/>
<path d="M8355 2343 c-71 -37 -105 -96 -105 -183 0 -135 103 -220 235 -196 53
10 119 75 135 131 17 61 7 139 -24 185 -46 71 -168 102 -241 63z"/>
<path d="M8937 2339 c-115 -60 -129 -240 -27 -333 115 -104 295 -29 317 132
11 81 -42 179 -114 208 -47 20 -131 17 -176 -7z"/>
<path d="M13135 2348 c-33 -18 -76 -61 -93 -93 -21 -40 -21 -150 0 -190 51
-96 172 -133 269 -82 63 33 102 110 97 187 -9 120 -80 190 -192 190 -34 0 -70
-6 -81 -12z"/>
<path d="M14815 2123 c-11 -2 -30 -6 -42 -8 -60 -13 -73 -86 -22 -129 84 -71
259 5 259 113 l0 31 -87 -1 c-49 -1 -97 -3 -108 -6z"/>
<path d="M12470 2105 c0 -49 78 -130 135 -141 66 -12 133 1 181 35 25 17 46
31 48 31 2 0 18 -13 37 -29 l33 -30 -19 -21 c-33 -36 -100 -70 -167 -85 -59
-13 -45 -13 207 -13 149 0 259 3 245 5 -133 22 -216 95 -249 221 l-12 42 -219
0 c-192 0 -220 -2 -220 -15z"/>
<path d="M17291 1897 c-19 -11 -57 -26 -85 -33 l-51 -12 88 -1 87 -1 0 35 c0
19 -1 35 -2 34 -2 0 -18 -10 -37 -22z"/>
</g>
</svg>
